<svg xmlns="http://www.w3.org/2000/svg" viewBox="0 0 212.13 55"><defs><style>.cls-1{fill:#052a3a}.cls-2{fill:#087395}</style></defs><g id="Capa_2" data-name="Capa 2"><g id="Capa_1-2" data-name="Capa 1"><path class="cls-1" d="M63.1 43.9V21.22c0-3.22-.11-3.53-3.23-4v-1.14l7.84-.86V43.9ZM83.69 21.43c0-3 0-3.78 2.8-3.78 3.52 0 6.12 1.26 6.12 5.79 0 4.69-3.81 5.45-6.54 5.45h-2.38ZM79.07 43.9h4.62v-13h2.6l7.41 13h4.82l-7.71-13.8c3.31-.54 6.41-2.13 6.41-6.91 0-7.5-8.67-7.5-11.82-7.5H75.09v.92c3.9.62 4 .62 4 4.77Z"/><path class="cls-2" d="M104.46 43.9H124l.17-6.08H123c0 4.06-2.43 4.1-4.94 4.1h-8.59l14.21-24v-2.23h-18.2l-.17 6.07h1.18c0-4.11 2.43-4.11 5-4.11h7.08l-14 23.81ZM135.33 29.89c0-5.66.5-12.7 7-12.7s6.75 7.21 6.75 12.7-.25 12.5-6.75 12.5-7-7.3-7-12.5m7 14.47c8.72 0 11.36-5.58 11.36-14.47s-2.64-14.67-11.36-14.67c-9.1 0-11.61 5.66-11.61 14.67s2.77 14.47 11.61 14.47M163.56 43.9h2.64V20h.08l13.83 23.9h4V15.69h-2.61v22.8h-.09l-13.2-22.8h-8.85v.92c3.61.71 4.2.54 4.2 4.44ZM195.26 43.9H212l.13-6.08h-1.19c-.25 3.27-1.38 4.1-3.78 4.1h-4.65c-2.1 0-2.64-.08-2.64-2.42v-9.35h5.07c2.52 0 3.44 1.34 3.44 3.6h1.18V25h-1.18c-.25 1.38-.55 3.23-3.44 3.23h-5.07v-8.4c0-2 .54-2.18 2.64-2.18h3.27c2.77 0 4.53.89 4.53 4.24h1.19l-.13-6.2h-20.09v.92c3.85.62 4 .62 4 4.77Z"/><path class="cls-1" d="m38.47 44-4.12-11.43h-14L16.24 44h-3.4l10.92-29.93a22.77 22.77 0 0 0 .94-3.24c0-2.19-2-2.25-4.23-2.58V7h10.32l13.39 37Zm-11-44A27.5 27.5 0 1 0 55 27.49 27.57 27.57 0 0 0 27.51 0"/><path class="cls-1" d="m27.16 13.96 6.26 16.03H21.29l5.87-16.03z"/></g></g></svg>