<?xml version="1.0" encoding="UTF-8"?>
<svg xmlns="http://www.w3.org/2000/svg" xmlns:xlink="http://www.w3.org/1999/xlink" width="408pt" height="103pt" viewBox="0 0 408 103" version="1.1">
<g id="surface1">
<path style=" stroke:none;fill-rule:evenodd;fill:rgb(0%,44.700623%,80.859375%);fill-opacity:1;" d="M 88.972656 42.746094 L 88.972656 77.261719 C 86.09375 77.738281 83.21875 77.980469 80.34375 77.980469 C 77.46875 77.980469 74.589844 77.738281 71.714844 77.261719 L 71.714844 46.582031 C 71.714844 39.75 68.476563 36.152344 62.007813 36.152344 C 57.574219 36.152344 54.816406 37.832031 52.777344 39.269531 C 52.898438 40.46875 53.019531 41.546875 53.019531 42.746094 L 53.019531 77.261719 C 50.140625 77.738281 47.265625 77.980469 44.390625 77.980469 C 41.511719 77.980469 38.636719 77.738281 35.878906 77.261719 L 35.878906 46.582031 C 35.878906 39.75 32.523438 36.152344 26.050781 36.152344 C 22.21875 36.152344 19.222656 37.230469 17.183594 38.429688 L 17.183594 77.261719 C 14.308594 77.738281 11.429688 77.980469 8.554688 77.980469 C 5.679688 77.980469 2.921875 77.738281 0.046875 77.261719 L 0.046875 29.679688 C 3.640625 26.328125 13.949219 20.574219 27.492188 20.574219 C 35.28125 20.574219 41.273438 22.492188 45.347656 25.726563 C 49.78125 22.96875 56.136719 20.574219 63.566406 20.574219 C 80.703125 20.574219 88.972656 29.921875 88.972656 42.746094 "/>
<path style=" stroke:none;fill-rule:evenodd;fill:rgb(0%,44.700623%,80.859375%);fill-opacity:1;" d="M 149.972656 45.023438 L 149.972656 73.785156 C 141.824219 77.140625 132.238281 79.179688 122.289063 79.179688 C 106.589844 79.179688 97.480469 73.1875 97.480469 61.203125 C 97.480469 49.695313 107.429688 43.703125 121.449219 43.824219 C 125.886719 43.945313 129.601563 44.421875 132.953125 45.5 L 132.953125 43.34375 C 132.953125 38.550781 129.71875 35.195313 121.570313 35.195313 C 115.097656 35.195313 109.585938 37.710938 106.710938 39.988281 C 102.996094 37.949219 100.117188 34.117188 99.28125 28.960938 C 102.394531 26.207031 111.023438 20.933594 123.128906 20.933594 C 138.949219 20.933594 149.972656 27.882813 149.972656 45.023438 Z M 124.566406 67.195313 C 127.324219 67.195313 130.078125 66.71875 132.835938 65.875 L 132.835938 55.808594 C 130.078125 54.96875 126.964844 54.488281 123.367188 54.488281 C 117.976563 54.488281 114.617188 56.289063 114.617188 60.363281 C 114.617188 64.4375 117.976563 67.195313 124.566406 67.195313 "/>
<path style=" stroke:none;fill-rule:evenodd;fill:rgb(0%,44.700623%,80.859375%);fill-opacity:1;" d="M 213.972656 23.570313 C 209.179688 58.566406 195.875 84.332031 171.066406 102.070313 C 165.792969 100.269531 162.316406 95.117188 160.761719 90.203125 C 166.871094 85.289063 172.265625 80.378906 175.742188 75.585938 C 164.476563 58.207031 159.441406 43.222656 155.128906 23.449219 C 157.523438 22.851563 162.917969 22.132813 167.710938 22.132813 C 169.746094 22.132813 172.265625 22.25 174.183594 22.492188 C 176.21875 35.195313 180.054688 48.855469 184.847656 59.882813 C 185.449219 61.203125 185.808594 62.160156 186.046875 63 C 186.285156 61.800781 186.648438 60.722656 187.007813 59.882813 C 191.800781 48.738281 194.4375 35.316406 195.996094 22.492188 C 198.152344 22.25 200.667969 22.132813 202.824219 22.132813 C 206.898438 22.25 210.855469 22.730469 213.972656 23.570313 "/>
<path style=" stroke:none;fill-rule:evenodd;fill:rgb(0%,44.700623%,80.859375%);fill-opacity:1;" d="M 324.347656 22.371094 C 324.226563 28.003906 322.671875 33.398438 319.433594 37.230469 C 317.398438 36.632813 315.238281 36.394531 312.84375 36.394531 C 309.246094 36.394531 306.253906 37.113281 304.453125 37.953125 L 304.453125 77.261719 C 301.699219 77.738281 298.699219 77.980469 295.824219 77.980469 C 292.949219 77.980469 290.191406 77.742188 287.316406 77.261719 L 287.316406 29.082031 C 291.148438 25.609375 299.660156 20.695313 311.644531 20.695313 C 316.917969 20.695313 321.113281 21.292969 324.347656 22.371094 "/>
<path style=" stroke:none;fill-rule:evenodd;fill:rgb(0%,44.700623%,80.859375%);fill-opacity:1;" d="M 379.117188 45.023438 L 379.117188 73.785156 C 370.96875 77.140625 361.378906 79.179688 351.433594 79.179688 C 335.730469 79.179688 326.625 73.1875 326.625 61.203125 C 326.628906 49.695313 336.574219 43.703125 350.597656 43.824219 C 355.03125 43.945313 358.746094 44.421875 362.101563 45.5 L 362.101563 43.34375 C 362.101563 38.550781 358.867188 35.195313 350.71875 35.195313 C 344.246094 35.195313 338.734375 37.710938 335.859375 39.988281 C 332.140625 37.949219 329.265625 34.117188 328.429688 28.960938 C 331.542969 26.207031 340.175781 20.933594 352.277344 20.933594 C 368.09375 20.933594 379.117188 27.882813 379.117188 45.023438 Z M 353.59375 67.195313 C 356.351563 67.195313 359.105469 66.71875 361.859375 65.875 L 361.859375 55.808594 C 359.105469 54.96875 355.988281 54.488281 352.394531 54.488281 C 347 54.488281 343.644531 56.289063 343.644531 60.363281 C 343.644531 64.4375 347 67.195313 353.59375 67.195313 "/>
<path style=" stroke:none;fill-rule:evenodd;fill:rgb(0%,44.700623%,80.859375%);fill-opacity:1;" d="M 390.023438 77.382813 L 390.023438 1.636719 C 392.660156 1.160156 395.539063 0.917969 398.414063 0.917969 C 401.289063 0.917969 404.285156 1.15625 407.28125 1.636719 L 407.28125 77.378906 C 404.644531 77.859375 401.648438 78.101563 398.773438 78.101563 C 395.898438 77.980469 393.019531 77.738281 390.023438 77.382813 "/>
<path style=" stroke:none;fill-rule:evenodd;fill:rgb(0%,44.700623%,80.859375%);fill-opacity:1;" d="M 248.246094 20.574219 C 230.746094 20.574219 218.046875 32.199219 218.046875 49.933594 C 218.046875 68.03125 230.511719 79.175781 248.007813 79.175781 C 265.503906 79.175781 278.207031 67.550781 278.207031 49.933594 C 278.207031 32.078125 265.625 20.574219 248.246094 20.574219 Z M 263.226563 61.921875 C 262.988281 61.921875 262.75 61.921875 262.507813 61.921875 L 234.226563 61.921875 C 229.910156 61.5625 226.433594 57.84375 226.433594 53.410156 C 226.433594 49.335938 229.3125 45.859375 233.265625 45.140625 C 233.027344 44.183594 232.789063 43.105469 232.789063 42.023438 C 232.789063 35.914063 237.703125 31 243.8125 31 C 249.207031 31 253.640625 34.832031 254.601563 39.867188 C 255.199219 39.746094 255.796875 39.628906 256.398438 39.628906 C 260.828125 39.628906 264.308594 43.222656 264.308594 47.539063 C 264.308594 47.898438 264.308594 48.257813 264.1875 48.617188 C 267.421875 49.09375 269.941406 51.851563 269.941406 55.207031 C 269.816406 58.925781 266.820313 61.921875 263.226563 61.921875 "/>
</g>
</svg>
